# xmcd CD database file
#
# Track frame offsets:
#	150
#	14305
#	31557
#	49032
#	65025
#	82500
#	99865
#	119387
#	137865
#	154205
#	172612
#	185502
#	199675
#	214787
#	232532
#	248452
#	263530
#
# Disc length: 3772 seconds
#
# Revision: 0
# Processed by: cddbd v1.5.1PL2 Copyright (c) Steve Scherf et al.
# Submitted via: CDex 1.51
#
DISCID=c20eba11
DTITLE=Various Artist - promo radio Sony Music no.0014
DYEAR=1990
DGENRE=Pop Rock
TTITLE0=New Kids on THe Block  -  tonight
TTITLE1=Cheap Trick  -  can't stop fallin'into love
TTITLE2=Paris Black  -  heaven sent
TTITLE3=Calloway  -  all the way
TTITLE4=Midnight star  -  king of the mountain
TTITLE5=Louie Louie  -  i wanna get back with you
TTITLE6=Ana (duo Jordan Knight)  -  angel of love
TTITLE7=Electric Light Orchestra  -  destination unknown
TTITLE8=Johnny Cash   -  all the way in love
TTITLE9=O-Positive  -  imagine that
TTITLE10=Tim Mensy -  too close to Tulsa
TTITLE11=Sweethearts of the rodeo  -  what it does to me
TTITLE12=The O'Kanes  -  tell me i was dreaming
TTITLE13=Les Taylor  -  everytime i think it's over
TTITLE14=Tammy Wynette  -  let's call it a day today
TTITLE15=Wynton Marsalis  -  flamingo
TTITLE16=Stanley Clarke and George Duke  -  Lady
EXTD=YEAR: 1990
EXTT0=
EXTT1=
EXTT2=
EXTT3=
EXTT4=
EXTT5=
EXTT6=
EXTT7=
EXTT8=
EXTT9=
EXTT10=
EXTT11=
EXTT12=
EXTT13=
EXTT14=
EXTT15=
EXTT16=
PLAYORDER=
